<svg viewBox="0 0 1024 1024" fill="currentColor" aria-hidden="true">
<g transform="matrix(1 0 0 -1 0 960)"><path d="M425.494 588.726c135.821-0.152 245.902-110.139 246.205-245.909v-0.029q0-4.764 0-9.483c99.621-1.567 179.778-82.692 179.778-182.539 0-100.825-81.735-182.56-182.56-182.56-0.978 0-1.955 0.008-2.93 0.023l0.147-0.002c-2.983 0-6.010 0-8.904 0.223h-443.748c-3.161 0-6.367-0.223-9.572-0.223-0.004 0-0.010 0-0.015 0-112.616 0-203.91 91.293-203.91 203.91 0 104.684 78.886 190.944 180.456 202.575l0.94 0.088c16.66 121.313 119.566 213.781 244.098 213.927h0.015zM604.694 330.5q0.312 5.832 0.223 11.665v0.356c0 99.092-80.33 179.423-179.423 179.423s-179.423-80.33-179.423-179.423v0-35.128l-35.083 1.781c-2.315 0-4.719 0-7.034 0-75.733 0-137.127-61.394-137.127-137.127s61.394-137.127 137.127-137.127v0c2.315 0 4.719 0 7.034 0h448.735c2.093 0 4.452 0 6.367 0 63.861 0.092 115.595 51.883 115.595 115.756 0 56.348-40.261 103.292-93.585 113.635l-0.729 0.118h-95.009l8.904 40.559q0.356 1.692 0.712 3.384l-20.525 20.525zM728.554 260.601l-36.374 56.097c50.003 32.502 82.606 88.095 82.606 151.303 0 99.338-80.53 179.868-179.868 179.868-73.815 0-137.245-44.465-164.967-108.070l-0.45-1.16-61.44 26.268c38.705 88.64 125.598 149.466 226.697 149.466 136.221 0 246.65-110.429 246.65-246.65 0-86.444-44.47-162.501-111.78-206.544l-0.942-0.578zM628.959 809.109h-66.783v85.037h66.783zM1021.64 435.126h-85.037v66.783h85.037zM860.472 685.784l-47.193 47.193 60.104 60.104 47.193-47.193zM331.108 685.784l-60.104 60.104 47.193 47.193 60.104-60.104z"/></g>
</svg>
